<mxfile host="app.diagrams.net" modified="2023-01-20T16:26:31.726Z" agent="5.0 (Windows NT 10.0; Win64; x64) AppleWebKit/537.36 (KHTML, like Gecko) Chrome/109.0.0.0 Safari/537.36" etag="VpntzLGcK31yuTdabtlS" version="20.8.9" type="github">
  <diagram id="pZF7BrZM8KYYfmaUWbH-" name="Page-1">
    <mxGraphModel dx="1430" dy="797" grid="1" gridSize="10" guides="1" tooltips="1" connect="1" arrows="1" fold="1" page="1" pageScale="1" pageWidth="827" pageHeight="1169" math="0" shadow="0">
      <root>
        <mxCell id="0" />
        <mxCell id="1" parent="0" />
        <mxCell id="w4F0DA9J7AdauBMP3hV4-64" value="" style="rounded=1;whiteSpace=wrap;html=1;shadow=0;labelBackgroundColor=none;labelBorderColor=none;strokeColor=#6c8ebf;fontSize=20;fillColor=#dae8fc;" parent="1" vertex="1">
          <mxGeometry x="614" y="320" width="136" height="230" as="geometry" />
        </mxCell>
        <mxCell id="w4F0DA9J7AdauBMP3hV4-63" value="" style="rounded=1;whiteSpace=wrap;html=1;shadow=0;labelBackgroundColor=none;labelBorderColor=none;strokeColor=#6c8ebf;fontSize=20;fillColor=#dae8fc;" parent="1" vertex="1">
          <mxGeometry x="604" y="320" width="136" height="230" as="geometry" />
        </mxCell>
        <mxCell id="w4F0DA9J7AdauBMP3hV4-56" style="edgeStyle=orthogonalEdgeStyle;rounded=0;orthogonalLoop=1;jettySize=auto;html=1;exitX=1;exitY=0.5;exitDx=0;exitDy=0;entryX=0.002;entryY=0.387;entryDx=0;entryDy=0;entryPerimeter=0;fontSize=20;endArrow=none;endFill=0;" parent="1" source="w4F0DA9J7AdauBMP3hV4-1" target="w4F0DA9J7AdauBMP3hV4-2" edge="1">
          <mxGeometry relative="1" as="geometry" />
        </mxCell>
        <mxCell id="w4F0DA9J7AdauBMP3hV4-60" style="edgeStyle=orthogonalEdgeStyle;rounded=0;orthogonalLoop=1;jettySize=auto;html=1;exitX=1;exitY=0.5;exitDx=0;exitDy=0;fontSize=20;endArrow=none;endFill=0;elbow=vertical;curved=1;dashed=1;entryX=0;entryY=0.5;entryDx=0;entryDy=0;" parent="1" source="w4F0DA9J7AdauBMP3hV4-1" target="7m_Gkb00Riiuzn-rtBAX-3" edge="1">
          <mxGeometry relative="1" as="geometry">
            <mxPoint x="200" y="415" as="targetPoint" />
            <Array as="points">
              <mxPoint x="180" y="475" />
            </Array>
          </mxGeometry>
        </mxCell>
        <mxCell id="w4F0DA9J7AdauBMP3hV4-1" value="&lt;ul style=&quot;font-size: 18px;&quot;&gt;&lt;li style=&quot;font-size: 18px;&quot;&gt;Клиент ID&amp;nbsp;&lt;/li&gt;&lt;/ul&gt;" style="text;strokeColor=none;fillColor=none;html=1;whiteSpace=wrap;verticalAlign=middle;overflow=hidden;fontSize=18;fontStyle=1" parent="1" vertex="1">
          <mxGeometry x="40" y="310" width="140" height="70" as="geometry" />
        </mxCell>
        <mxCell id="w4F0DA9J7AdauBMP3hV4-2" value="&lt;ul style=&quot;font-size: 18px;&quot;&gt;&lt;li style=&quot;font-size: 18px;&quot;&gt;Дата выписки по кредитной карте 1&lt;/li&gt;&lt;/ul&gt;" style="text;strokeColor=none;fillColor=none;html=1;whiteSpace=wrap;verticalAlign=middle;overflow=hidden;rounded=1;arcSize=50;shadow=0;align=left;fontSize=18;fontStyle=1" parent="1" vertex="1">
          <mxGeometry x="210" y="310" width="168" height="90" as="geometry" />
        </mxCell>
        <mxCell id="w4F0DA9J7AdauBMP3hV4-5" value="..." style="text;html=1;strokeColor=none;fillColor=none;align=center;verticalAlign=middle;whiteSpace=wrap;rounded=0;fontSize=26;" parent="1" vertex="1">
          <mxGeometry x="250" y="400" width="54" height="30" as="geometry" />
        </mxCell>
        <mxCell id="w4F0DA9J7AdauBMP3hV4-35" value="&amp;nbsp; &amp;nbsp; &lt;font style=&quot;font-size: 14px;&quot;&gt;Признаки выписки по кредитной карте:&lt;br&gt;&lt;/font&gt;&lt;ul style=&quot;font-size: 14px;&quot;&gt;&lt;li style=&quot;&quot;&gt;&lt;font style=&quot;font-size: 14px;&quot;&gt;Переменные уровня преступности:&lt;/font&gt;&lt;/li&gt;&lt;ul style=&quot;&quot;&gt;&lt;li&gt;&lt;font style=&quot;font-size: 14px;&quot;&gt;D_*&amp;nbsp;&lt;/font&gt;&lt;/li&gt;&lt;/ul&gt;&lt;li style=&quot;&quot;&gt;&lt;font style=&quot;font-size: 14px;&quot;&gt;Характеристики клиента:&lt;/font&gt;&lt;/li&gt;&lt;ul style=&quot;&quot;&gt;&lt;li&gt;&lt;font style=&quot;font-size: 14px;&quot;&gt;Переменные расходов:&lt;/font&gt;&lt;/li&gt;&lt;ul&gt;&lt;li&gt;&lt;font style=&quot;font-size: 14px;&quot;&gt;S_*&lt;/font&gt;&lt;/li&gt;&lt;/ul&gt;&lt;li&gt;&lt;font style=&quot;font-size: 14px;&quot;&gt;Переменные оплаты:&lt;/font&gt;&lt;/li&gt;&lt;ul&gt;&lt;li&gt;&lt;font style=&quot;font-size: 14px;&quot;&gt;P_*&lt;/font&gt;&lt;/li&gt;&lt;/ul&gt;&lt;li&gt;&lt;font style=&quot;font-size: 14px;&quot;&gt;Переменные баланса:&lt;/font&gt;&lt;/li&gt;&lt;ul&gt;&lt;li&gt;&lt;font style=&quot;font-size: 14px;&quot;&gt;R_*&lt;/font&gt;&lt;/li&gt;&lt;/ul&gt;&lt;/ul&gt;&lt;li style=&quot;&quot;&gt;&lt;font style=&quot;font-size: 14px;&quot;&gt;Оценка риска клиента банком:&lt;/font&gt;&lt;/li&gt;&lt;ul style=&quot;&quot;&gt;&lt;li style=&quot;&quot;&gt;&lt;font style=&quot;font-size: 14px;&quot;&gt;R_*&lt;/font&gt;&lt;/li&gt;&lt;/ul&gt;&lt;/ul&gt;" style="rounded=1;html=1;align=left;verticalAlign=top;labelBackgroundColor=none;labelBorderColor=none;whiteSpace=wrap;spacing=2;fillColor=#dae8fc;strokeColor=#6c8ebf;fontStyle=1" parent="1" vertex="1">
          <mxGeometry x="414" y="320" width="314" height="230" as="geometry" />
        </mxCell>
        <mxCell id="w4F0DA9J7AdauBMP3hV4-55" value="..." style="text;html=1;strokeColor=none;fillColor=none;align=center;verticalAlign=middle;whiteSpace=wrap;rounded=0;fontSize=26;" parent="1" vertex="1">
          <mxGeometry x="90" y="360" width="54" height="30" as="geometry" />
        </mxCell>
        <mxCell id="7m_Gkb00Riiuzn-rtBAX-3" value="&lt;ul style=&quot;font-size: 18px;&quot;&gt;&lt;li style=&quot;font-size: 18px;&quot;&gt;Дата выписки по кредитной карте n&lt;/li&gt;&lt;/ul&gt;" style="text;strokeColor=none;fillColor=none;html=1;whiteSpace=wrap;verticalAlign=middle;overflow=hidden;rounded=1;arcSize=50;shadow=0;align=left;fontSize=18;fontStyle=1" parent="1" vertex="1">
          <mxGeometry x="210" y="430" width="168" height="90" as="geometry" />
        </mxCell>
        <mxCell id="7m_Gkb00Riiuzn-rtBAX-5" style="edgeStyle=orthogonalEdgeStyle;rounded=0;orthogonalLoop=1;jettySize=auto;html=1;exitX=1;exitY=0.5;exitDx=0;exitDy=0;entryX=0.002;entryY=0.387;entryDx=0;entryDy=0;entryPerimeter=0;fontSize=20;endArrow=none;endFill=0;" parent="1" edge="1">
          <mxGeometry relative="1" as="geometry">
            <mxPoint x="383.65999999999997" y="345.06" as="sourcePoint" />
            <mxPoint x="413.996" y="344.89000000000004" as="targetPoint" />
          </mxGeometry>
        </mxCell>
        <mxCell id="7m_Gkb00Riiuzn-rtBAX-6" style="edgeStyle=orthogonalEdgeStyle;rounded=0;orthogonalLoop=1;jettySize=auto;html=1;exitX=1;exitY=0.5;exitDx=0;exitDy=0;entryX=0.002;entryY=0.387;entryDx=0;entryDy=0;entryPerimeter=0;fontSize=20;endArrow=none;endFill=0;dashed=1;" parent="1" edge="1">
          <mxGeometry relative="1" as="geometry">
            <mxPoint x="382.99999999999994" y="475.05999999999995" as="sourcePoint" />
            <mxPoint x="413.33599999999996" y="474.8900000000001" as="targetPoint" />
          </mxGeometry>
        </mxCell>
      </root>
    </mxGraphModel>
  </diagram>
</mxfile>
